<svg fill="#012c57" id="_x33_0" enable-background="new 0 0 64 64" height="512" viewBox="0 0 64 64" width="512" xmlns="http://www.w3.org/2000/svg"><g><path d="m13 18h1c7.119 0 9-5.887 9-9v-1h-1c-4.572 0-7.367 1.573-9 3.546v-1.546c0-4.962-4.038-9-9-9h-3v2c0 4.962 4.038 9 9 9h1v5 1 .44c-1.301-1.33-3.438-2.44-7-2.44h-1v1c0 2.718 1.509 7.857 7.222 7.857h.778v4.143h-6v9c0 3.859 3.14 7 7 7 2.757 0 5 2.243 5 5v7h-5c-2.757 0-5-2.243-5-5v-7h-2v7c0 3.519 2.613 6.432 6 6.92v4.08h2v-4h6v-9c0-3.859-3.14-7-7-7-2.757 0-5-2.243-5-5v-7h5c2.757 0 5 2.243 5 5v7h2v-7c0-3.519-2.613-6.432-6-6.92zm7.903-7.964c-.307 1.956-1.586 5.964-6.903 5.964h-.924c.421-2.771 2.647-5.613 7.827-5.964zm-10.903-.036c-3.86 0-7-3.14-7-7h1c3.86 0 7 3.14 7 7zm.222 12.857c-3.828 0-4.85-3.127-5.123-4.814 5.338.431 5.85 4 5.896 4.814z"/><path d="m41 37v6h-20v20h42v-26zm2 2h18v4h-2v-2h-2v2h-2v-2h-2v2h-2v-2h-2v2h-2v-2h-2v2h-2zm18 6v4h-2v-2h-2v2h-2v-2h-2v2h-2v-2h-2v2h-2v-2h-2v2h-2v-4zm-4 8v2h-2v-2h-2v2h-2v-2h-2v2h-2v-2h-2v2h-2v-4h18v4h-2v-2zm-20 0v2h-2v-2h-2v2h-2v-2h-2v2h-2v-2h-2v2h-2v-4h18v4h-2v-2zm4-8v4h-2v-2h-2v2h-2v-2h-2v2h-2v-2h-2v2h-2v-2h-2v2h-2v-4zm-2 16v-2h-2v2h-2v-2h-2v2h-2v-2h-2v2h-2v-2h-2v2h-2v-4h18v4zm20 0v-2h-2v2h-2v-2h-2v2h-2v-2h-2v2h-2v-2h-2v2h-2v-4h18v4z"/><path d="m47 35h2v-22h-3.131l6.131-9.197 6.131 9.197h-3.131v22h2v-20h4.869l-9.869-14.803-9.869 14.803h4.869z"/><path d="m27 25v16h2v-18h-3.131l6.131-9.197 6.131 9.197h-3.131v18h2v-16h4.869l-9.869-14.803-9.869 14.803z"/></g></svg>