<svg id="Layer_1" enable-background="new 0 0 497 497" height="512" viewBox="0 0 497 497" width="512" xmlns="http://www.w3.org/2000/svg"><g><g><path d="m216 497v-480.171c0-9.294 7.535-16.829 16.829-16.829h31.347c9.292 0 16.824 7.532 16.824 16.824v480.176z" fill="#a9b2cc"/><path d="m264.176 0h-31.347c-.279 0-.551.028-.826.042 8.905.434 15.997 7.77 15.997 16.782v480.176h33v-480.176c0-9.292-7.532-16.824-16.824-16.824z" fill="#8f9bbf"/><circle cx="248.5" cy="248.833" fill="#ff2e2e" r="208.667"/><path d="m248.5 40.167c-6.747 0-13.417.333-20 .959 105.859 10.068 188.667 99.212 188.667 207.708s-82.807 197.64-188.667 207.708c6.583.626 13.253.959 20 .959 115.243 0 208.667-93.423 208.667-208.667s-93.424-208.667-208.667-208.667z" fill="#f20f0f"/></g><path d="m386.235 288.136h-275.47c-5.523 0-10-4.477-10-10v-58.606c0-5.523 4.477-10 10-10h275.469c5.523 0 10 4.477 10 10v58.606c.001 5.523-4.476 10-9.999 10z" fill="#fff"/><path d="m386.235 209.53h-30c5.523 0 10 4.477 10 10v58.606c0 5.523-4.477 10-10 10h30c5.523 0 10-4.477 10-10v-58.606c0-5.523-4.477-10-10-10z" fill="#e1edf7"/></g></svg>